<?xml version="1.0" encoding="utf-8"?>
<!-- Generator: Adobe Illustrator 16.0.0, SVG Export Plug-In . SVG Version: 6.00 Build 0)  -->
<!DOCTYPE svg PUBLIC "-//W3C//DTD SVG 1.1//EN" "http://www.w3.org/Graphics/SVG/1.1/DTD/svg11.dtd">
<svg version="1.1" xmlns="http://www.w3.org/2000/svg" xmlns:xlink="http://www.w3.org/1999/xlink" x="0px" y="0px" width="288px"
	 height="311.837px" viewBox="0 0 288 311.837" enable-background="new 0 0 288 311.837" xml:space="preserve">
<g id="_x33_1">
	<path fill-rule="evenodd" clip-rule="evenodd" fill="#F7F00B" d="M226.564,109.832c0,45.576-84.425,122.163-84.425,122.163
		s-84.413-76.587-84.413-122.163c0-45.581,37.645-82.44,84.413-82.44C188.508,27.391,226.564,64.25,226.564,109.832L226.564,109.832
		z"/>
	<path fill-rule="evenodd" clip-rule="evenodd" fill="#FFC303" d="M141.215,27.41c46.408,0.403,83.645,37.092,83.645,82.422
		c0,43.043-75.273,113.731-83.645,121.46V27.41z"/>
	<circle fill-rule="evenodd" clip-rule="evenodd" fill="#F9CB08" cx="142.172" cy="108.348" r="65.449"/>
	<circle fill-rule="evenodd" clip-rule="evenodd" fill="#FFFFFF" cx="142.172" cy="108.348" r="52.799"/>
	<path fill-rule="evenodd" clip-rule="evenodd" fill="#1D1D1B" d="M171.624,94.929c-2.388,0-5.035,0.473-7.122,1.313L155,78.59
		v-2.753h-10v5h7.298l-0.045-0.211l2.32,4.211h-26.787l-1.568-2.731l4-0.125c1.107,0,2.782-0.341,2.782-1.745v-0.135
		c0-1.404-1.391-1.861-2.499-1.861l-11.599-0.366c-1.106,0-1.903,0.823-1.903,2.228v0.135c0,1.404,0.474,0.602,1.582,0.602h3.721
		l2.707,6.83l-4.663,8.441c-2.319-1.078-4.898-1.438-7.625-1.438c-10.012,0-18.128,8.245-18.128,18.256
		c0,10.013,8.116,17.748,18.128,17.748c9.445,0,17.195-7.836,18.042-16.836h8.737l1.655-1.731l17.476-18.252l2.267,4.5
		c-4.481,3.301-7.402,8.653-7.402,14.646c0,10.013,8.116,18.158,18.128,18.158c10.01,0,18.126-8.104,18.126-18.116
		C189.75,103.029,181.634,94.929,171.624,94.929z M122.069,101.36c2.152,1.942,3.703,5.477,4.322,7.477h-8.723L122.069,101.36z
		 M112.722,126.581c-7.717,0-13.973-6.032-13.973-13.749c0-7.718,6.256-13.86,13.973-13.86c1.957,0,3.82,0.462,5.512,1.189
		l-6.748,11.496l-0.016,2.606l0.94-0.425h14.173C125.755,119.837,119.87,126.581,112.722,126.581z M130.597,108.837
		c-0.715-5-3.037-7.717-6.379-10.461l3.243-5.12l5.485,11.931l0.434,0.41l1.752,3.241H130.597z M139.167,106.075l-7.903-17.238
		h24.205L139.167,106.075z M171.624,127.027c-7.717,0-13.973-6.255-13.973-13.971c0-4.383,2.021-8.291,5.18-10.853l6.232,12.065
		l4.063-2.075l-6.329-12.236c1.505-0.557,3.127-0.875,4.827-0.875c7.715,0,13.971,6.256,13.971,13.974
		C185.595,120.772,179.339,127.027,171.624,127.027z"/>
</g>
<g id="Layer_1">
</g>
</svg>
