<?xml version="1.0" encoding="utf-8"?>
<!-- Generator: Adobe Illustrator 16.0.0, SVG Export Plug-In . SVG Version: 6.00 Build 0)  -->
<!DOCTYPE svg PUBLIC "-//W3C//DTD SVG 1.1//EN" "http://www.w3.org/Graphics/SVG/1.1/DTD/svg11.dtd">
<svg version="1.1" xmlns="http://www.w3.org/2000/svg" xmlns:xlink="http://www.w3.org/1999/xlink" x="0px" y="0px" width="288px"
	 height="311.837px" viewBox="0 0 288 311.837" enable-background="new 0 0 288 311.837" xml:space="preserve">
<g id="_x33_1">
	<g>
		<path fill-rule="evenodd" clip-rule="evenodd" fill="#ED6294" d="M229.571,115.017c0,45.576-84.425,122.163-84.425,122.163
			s-84.414-76.587-84.414-122.163c0-45.581,37.646-82.44,84.414-82.44C191.516,32.576,229.571,69.436,229.571,115.017
			L229.571,115.017z"/>
		<path fill-rule="evenodd" clip-rule="evenodd" fill="#CF0369" d="M144.221,32.595c46.41,0.403,83.646,37.092,83.646,82.422
			c0,43.043-75.274,113.731-83.646,121.46V32.595z"/>
		<path fill-rule="evenodd" clip-rule="evenodd" fill="#D33375" d="M210.628,113.533c0,36.147-29.302,65.449-65.45,65.449
			c-36.144,0-65.448-29.302-65.448-65.449c0-36.146,29.305-65.449,65.448-65.449C181.326,48.084,210.628,77.388,210.628,113.533z"/>
		<circle fill-rule="evenodd" clip-rule="evenodd" fill="#FFFFFF" cx="145.179" cy="113.533" r="52.798"/>
		<g>
			<path fill-rule="evenodd" clip-rule="evenodd" fill="#1D1D1B" d="M173.349,101.184c-1.485-7.187-1.784-23.356-14.855-23.771
				c-7.15-0.228-10.519-0.206-12.106-0.14c-1.588-0.066-4.955-0.088-12.107,0.14c-13.07,0.414-13.367,16.584-14.854,23.771
				c-1.484,7.187-0.891,13.481-0.891,22.741S128.253,135,128.253,135h14.815h6.637h14.816c0,0,9.718-1.816,9.718-11.076
				S174.834,108.37,173.349,101.184z"/>
			<circle fill-rule="evenodd" clip-rule="evenodd" fill="#1D1D1B" cx="146.387" cy="77.481" r="6.842"/>
			<circle fill-rule="evenodd" clip-rule="evenodd" fill="#FFFFFF" cx="146.386" cy="77.481" r="4.215"/>
			<g>
				<path fill-rule="evenodd" clip-rule="evenodd" fill="#FFFFFF" d="M145,101h-21.402c0,0,2.543-10.775,3.51-14.23
					c0.968-3.455,4.424-3.77,6.221-3.77C135.124,83,145,83,145,83V101z"/>
				<path fill-rule="evenodd" clip-rule="evenodd" fill="#FFFFFF" d="M148,101h21.869c0,0-2.543-10.775-3.51-14.23
					S161.936,83,160.14,83S148,83,148,83V101z"/>
			</g>
			<g>
				<circle fill-rule="evenodd" clip-rule="evenodd" fill="#FFFFFF" cx="128.241" cy="122.27" r="4.699"/>
				<circle fill-rule="evenodd" clip-rule="evenodd" fill="#FFFFFF" cx="164.533" cy="122.27" r="4.699"/>
			</g>
			<g>
				<polygon fill-rule="evenodd" clip-rule="evenodd" fill="#1D1D1B" points="121.309,148 125.697,148 131.607,137 127.219,137 				
					"/>
				<polygon fill-rule="evenodd" clip-rule="evenodd" fill="#1D1D1B" points="171.527,148 167.139,148 161.229,137 165.618,137 				
					"/>
				<polygon fill-rule="evenodd" clip-rule="evenodd" fill="#1D1D1B" points="161.297,141 131.293,141 132.671,138 159.889,138 				
					"/>
				<polygon fill-rule="evenodd" clip-rule="evenodd" fill="#1D1D1B" points="163.717,145 128.571,145 129.973,142 162.283,142 				
					"/>
			</g>
		</g>
	</g>
</g>
<g id="Layer_1">
</g>
</svg>
